<svg xmlns="http://www.w3.org/2000/svg" viewBox="0 0 24 24" aria-hidden="true">
  <path fill="#352112" d="M12 0C5.373 0 0 5.373 0 12s5.373 12 12 12 12-5.373 12-12S18.627 0 12 0zm4.478 16.865c-.44.44-1.17.653-2.168.653-1.395 0-2.562-.518-3.47-1.537-.91-1.02-1.37-2.276-1.37-3.74 0-1.47.46-2.744 1.37-3.786.91-1.04 2.08-1.564 3.47-1.564.88 0 1.578.177 2.072.526.494.35.877.84 1.133 1.454l-1.497.67c-.148-.4-.39-.712-.715-.928a1.898 1.898 0 00-1.06-.316c-.84 0-1.512.327-2.005.975-.493.648-.742 1.47-.742 2.45 0 .979.25 1.793.742 2.425.494.633 1.165.947 2.006.947.42 0 .797-.1 1.121-.303.325-.203.584-.503.77-.893l1.489.67c-.262.607-.65 1.093-1.147 1.497z"/>
</svg>
