<svg xmlns="http://www.w3.org/2000/svg" viewBox="0 0 24 24" aria-hidden="true">
  <path fill="#352112" d="M16.608 15.408l.334-1.148a.608.608 0 00-.093-.529.608.608 0 00-.481-.234l-9.451-.016a.185.185 0 01-.163-.096.185.185 0 01.01-.186l.557-1.524a.693.693 0 01.651-.443h10.915a.693.693 0 01.663.884l-1.794 4.937a.693.693 0 01-.651.442H5.013a.693.693 0 01-.663-.884l.755-2.077 9.021.029c.33 0 .596-.13.748-.36.152-.232.163-.512.134-.726zM11.88 4.944a2.4 2.4 0 00-2.274 1.65 1.2 1.2 0 00-1.197 1.2H6.1a1.92 1.92 0 00-1.92 1.92h15.204a1.92 1.92 0 00-1.92-1.92h-.48a2.4 2.4 0 00-2.267-1.624 2.4 2.4 0 00-2.837-1.226z"/>
</svg>
